<?xml version="1.0" encoding="UTF-8" standalone="no"?>
<!-- Created with Inkscape (http://www.inkscape.org/) -->

<svg
   version="1.0"
   width="500"
   height="500"
   viewBox="0 0 500 500"
   id="svg11310"
   xml:space="preserve"
   sodipodi:version="0.32"
   inkscape:version="1.1.1 (3bf5ae0d25, 2021-09-20)"
   sodipodi:docname="Action unlock - green.svg"
   inkscape:output_extension="org.inkscape.output.svg.inkscape"
   xmlns:inkscape="http://www.inkscape.org/namespaces/inkscape"
   xmlns:sodipodi="http://sodipodi.sourceforge.net/DTD/sodipodi-0.dtd"
   xmlns="http://www.w3.org/2000/svg"
   xmlns:svg="http://www.w3.org/2000/svg"
   xmlns:rdf="http://www.w3.org/1999/02/22-rdf-syntax-ns#"
   xmlns:cc="http://creativecommons.org/ns#"
   xmlns:dc="http://purl.org/dc/elements/1.1/"><metadata
     id="metadata52"><rdf:RDF><cc:Work
         rdf:about=""><dc:format>image/svg+xml</dc:format><dc:type
           rdf:resource="http://purl.org/dc/dcmitype/StillImage" /><dc:date>20080613</dc:date><dc:creator><cc:Agent><dc:title>Jérôme Borme</dc:title></cc:Agent></dc:creator><dc:contributor><cc:Agent><dc:title>Everaldo Coelho, YellowIcon, 本日晴天</dc:title></cc:Agent></dc:contributor><cc:license
           rdf:resource="LGPL" /><dc:source>https://commons.wikimedia.org/wiki/File:Cadenas-ouvert-vert.svg</dc:source></cc:Work></rdf:RDF></metadata><sodipodi:namedview
     inkscape:cy="166.9884"
     inkscape:cx="-337.23511"
     inkscape:zoom="0.6138151"
     inkscape:window-height="705"
     inkscape:window-width="1366"
     inkscape:pageshadow="2"
     inkscape:pageopacity="0"
     guidetolerance="10000"
     gridtolerance="10000"
     objecttolerance="10000"
     borderopacity="1.0"
     bordercolor="#666666"
     pagecolor="#71bab8"
     id="base"
     showgrid="true"
     inkscape:document-units="px"
     inkscape:window-x="-8"
     inkscape:window-y="-8"
     inkscape:current-layer="svg11310"
     showguides="true"
     inkscape:guide-bbox="true"
     inkscape:pagecheckerboard="0"
     inkscape:window-maximized="1" /><defs
     id="defs11312" /><path
     d="m 497.17268,85.218071 c 0,-21.851293 -8.68043,-42.807652 -24.13171,-58.25897 C 457.58966,11.507782 436.63331,2.8273129 414.78205,2.8273129 H 85.218264 c -21.851557,0 -42.807888,8.6804691 -58.259191,24.1317881 C 11.508061,42.410419 2.8273129,63.366778 2.8273129,85.218071 V 414.78192 c 0,21.8516 8.6804591,42.80797 24.1317601,58.25898 15.451303,15.45135 36.407634,24.13179 58.259191,24.13179 H 414.78178 c 21.85153,0 42.80757,-8.68044 58.25885,-24.13179 15.45136,-15.45101 24.13175,-36.40765 24.13175,-58.25898 V 85.218071 Z"
     style="display:inline;fill:#00e020;fill-opacity:1;fill-rule:evenodd;stroke:#ffffff;stroke-width:5.65462;stroke-miterlimit:4;stroke-dasharray:none"
     id="path17668" /><g
     id="g3444"
     transform="matrix(0.29198203,0,0,0.29198234,-30.674911,4.7147434)"><rect
       style="display:inline;overflow:visible;visibility:visible;opacity:1;fill:#ffffff;fill-opacity:1;fill-rule:nonzero;stroke:#000000;stroke-width:0.708661;stroke-linecap:round;stroke-linejoin:round;stroke-miterlimit:4;stroke-dasharray:none;stroke-dashoffset:0;stroke-opacity:1;marker:none;marker-start:none;marker-mid:none;marker-end:none;enable-background:accumulate"
       id="rect2427"
       width="895.20062"
       height="672.79132"
       x="1415.3496"
       y="2070.3862"
       rx="111.04942"
       ry="99.200508"
       transform="translate(-1053.0426,-1345.0971)" /><path
       sodipodi:nodetypes="ccsscsscc"
       id="path2510"
       d="m 955.40004,799.4727 c 0,-80.6929 0,-173.4898 0,-254.1827 0,-47.0529 25.0488,-100.0914 48.41576,-133.1433 66.7974,-94.4826 145.2472,-121.0394 266.2866,-121.0394 0,0 0,145.2473 0,181.5591 -24.2079,0 -48.4158,0 -84.7276,0 -24.2079,0 -72.6236,24.2078 -72.6236,72.6236 0,72.6237 0,254.1827 0,254.1827 z"
       style="fill:#ffffff;fill-opacity:1;fill-rule:evenodd;stroke:none;stroke-width:1px;stroke-linecap:butt;stroke-linejoin:miter;stroke-opacity:1" /><path
       sodipodi:nodetypes="ccsscsscc"
       id="path3338"
       d="m 1560.5969,799.4727 c 0,-80.6929 0,-173.4898 0,-254.1827 0,-47.0529 -25.0488,-100.0914 -48.4158,-133.1433 -66.7974,-94.4826 -145.2472,-121.0394 -266.2866,-121.0394 0,0 0,145.2473 0,181.5591 24.2079,0 48.4158,0 84.7276,0 24.2079,0 72.6236,24.2078 72.6236,72.6236 0,72.6237 0,254.1827 0,254.1827 z"
       style="fill:#ffffff;fill-opacity:1;fill-rule:evenodd;stroke:none;stroke-width:1px;stroke-linecap:butt;stroke-linejoin:miter;stroke-opacity:1" /></g></svg>
